<svg xmlns="http://www.w3.org/2000/svg" xmlns:xlink="http://www.w3.org/1999/xlink" width="500" zoomAndPan="magnify" viewBox="0 0 375 374.999991" height="500" preserveAspectRatio="xMidYMid meet" version="1.0"><defs><g/><clipPath id="ed7401f518"><path d="M 137.386719 102.9375 L 237.867188 102.9375 L 237.867188 202.6875 L 137.386719 202.6875 Z M 137.386719 102.9375 " clip-rule="nonzero"/></clipPath></defs><g fill="#001d30" fill-opacity="1"><g transform="translate(52.043003, 236.351351)"><g><path d="M 8.59375 -15.75 C 9.957031 -15.75 11.144531 -15.523438 12.15625 -15.078125 C 13.175781 -14.628906 13.953125 -13.984375 14.484375 -13.140625 C 15.023438 -12.296875 15.296875 -11.296875 15.296875 -10.140625 C 15.296875 -9.003906 15.023438 -8.007812 14.484375 -7.15625 C 13.953125 -6.3125 13.175781 -5.664062 12.15625 -5.21875 C 11.144531 -4.769531 9.957031 -4.546875 8.59375 -4.546875 L 5.046875 -4.546875 L 5.046875 0 L 2.109375 0 L 2.109375 -15.75 Z M 8.453125 -7.015625 C 9.734375 -7.015625 10.703125 -7.285156 11.359375 -7.828125 C 12.023438 -8.367188 12.359375 -9.140625 12.359375 -10.140625 C 12.359375 -11.148438 12.023438 -11.925781 11.359375 -12.46875 C 10.703125 -13.007812 9.734375 -13.28125 8.453125 -13.28125 L 5.046875 -13.28125 L 5.046875 -7.015625 Z M 8.453125 -7.015625 "/></g></g></g><g fill="#001d30" fill-opacity="1"><g transform="translate(75.128057, 236.351351)"><g><path d="M 12.328125 -3.640625 L 4.453125 -3.640625 L 2.90625 0 L -0.109375 0 L 6.96875 -15.75 L 9.859375 -15.75 L 16.96875 0 L 13.90625 0 Z M 11.359375 -5.9375 L 8.390625 -12.828125 L 5.4375 -5.9375 Z M 11.359375 -5.9375 "/></g></g></g><g fill="#001d30" fill-opacity="1"><g transform="translate(98.730612, 236.351351)"><g><path d="M 12.421875 0 L 9.203125 -4.609375 C 9.066406 -4.597656 8.863281 -4.59375 8.59375 -4.59375 L 5.046875 -4.59375 L 5.046875 0 L 2.109375 0 L 2.109375 -15.75 L 8.59375 -15.75 C 9.957031 -15.75 11.144531 -15.523438 12.15625 -15.078125 C 13.175781 -14.628906 13.953125 -13.984375 14.484375 -13.140625 C 15.023438 -12.296875 15.296875 -11.296875 15.296875 -10.140625 C 15.296875 -8.960938 15.003906 -7.945312 14.421875 -7.09375 C 13.847656 -6.238281 13.023438 -5.597656 11.953125 -5.171875 L 15.5625 0 Z M 12.359375 -10.140625 C 12.359375 -11.148438 12.023438 -11.925781 11.359375 -12.46875 C 10.703125 -13.007812 9.734375 -13.28125 8.453125 -13.28125 L 5.046875 -13.28125 L 5.046875 -7 L 8.453125 -7 C 9.734375 -7 10.703125 -7.269531 11.359375 -7.8125 C 12.023438 -8.363281 12.359375 -9.140625 12.359375 -10.140625 Z M 12.359375 -10.140625 "/></g></g></g><g fill="#001d30" fill-opacity="1"><g transform="translate(121.928159, 236.351351)"><g><path d="M 5.3125 -13.28125 L 0.09375 -13.28125 L 0.09375 -15.75 L 13.453125 -15.75 L 13.453125 -13.28125 L 8.234375 -13.28125 L 8.234375 0 L 5.3125 0 Z M 5.3125 -13.28125 "/></g></g></g><g fill="#001d30" fill-opacity="1"><g transform="translate(142.223214, 236.351351)"><g><path d="M 16.109375 -15.75 L 16.109375 0 L 13.703125 0 L 5.015625 -10.671875 L 5.015625 0 L 2.109375 0 L 2.109375 -15.75 L 4.515625 -15.75 L 13.203125 -5.078125 L 13.203125 -15.75 Z M 16.109375 -15.75 "/></g></g></g><g fill="#001d30" fill-opacity="1"><g transform="translate(167.198254, 236.351351)"><g><path d="M 13.921875 -2.453125 L 13.921875 0 L 2.109375 0 L 2.109375 -15.75 L 13.609375 -15.75 L 13.609375 -13.296875 L 5.046875 -13.296875 L 5.046875 -9.203125 L 12.640625 -9.203125 L 12.640625 -6.796875 L 5.046875 -6.796875 L 5.046875 -2.453125 Z M 13.921875 -2.453125 "/></g></g></g><g fill="#001d30" fill-opacity="1"><g transform="translate(189.023303, 236.351351)"><g><path d="M 12.421875 0 L 9.203125 -4.609375 C 9.066406 -4.597656 8.863281 -4.59375 8.59375 -4.59375 L 5.046875 -4.59375 L 5.046875 0 L 2.109375 0 L 2.109375 -15.75 L 8.59375 -15.75 C 9.957031 -15.75 11.144531 -15.523438 12.15625 -15.078125 C 13.175781 -14.628906 13.953125 -13.984375 14.484375 -13.140625 C 15.023438 -12.296875 15.296875 -11.296875 15.296875 -10.140625 C 15.296875 -8.960938 15.003906 -7.945312 14.421875 -7.09375 C 13.847656 -6.238281 13.023438 -5.597656 11.953125 -5.171875 L 15.5625 0 Z M 12.359375 -10.140625 C 12.359375 -11.148438 12.023438 -11.925781 11.359375 -12.46875 C 10.703125 -13.007812 9.734375 -13.28125 8.453125 -13.28125 L 5.046875 -13.28125 L 5.046875 -7 L 8.453125 -7 C 9.734375 -7 10.703125 -7.269531 11.359375 -7.8125 C 12.023438 -8.363281 12.359375 -9.140625 12.359375 -10.140625 Z M 12.359375 -10.140625 "/></g></g></g><g fill="#001d30" fill-opacity="1"><g transform="translate(212.220853, 236.351351)"><g/></g></g><g fill="#001d30" fill-opacity="1"><g transform="translate(225.18092, 236.351351)"><g><path d="M 25.125 -15.75 L 19.90625 0 L 16.8125 0 L 12.921875 -11.65625 L 8.953125 0 L 5.828125 0 L 0.609375 -15.75 L 3.640625 -15.75 L 7.5625 -3.78125 L 11.625 -15.75 L 14.328125 -15.75 L 18.3125 -3.71875 L 22.34375 -15.75 Z M 25.125 -15.75 "/></g></g></g><g fill="#001d30" fill-opacity="1"><g transform="translate(257.670957, 236.351351)"><g><path d="M 9.46875 0.21875 C 7.863281 0.21875 6.414062 -0.128906 5.125 -0.828125 C 3.832031 -1.523438 2.816406 -2.488281 2.078125 -3.71875 C 1.347656 -4.957031 0.984375 -6.34375 0.984375 -7.875 C 0.984375 -9.40625 1.347656 -10.785156 2.078125 -12.015625 C 2.816406 -13.253906 3.832031 -14.222656 5.125 -14.921875 C 6.414062 -15.617188 7.863281 -15.96875 9.46875 -15.96875 C 11.070312 -15.96875 12.519531 -15.617188 13.8125 -14.921875 C 15.101562 -14.222656 16.113281 -13.257812 16.84375 -12.03125 C 17.582031 -10.800781 17.953125 -9.414062 17.953125 -7.875 C 17.953125 -6.332031 17.582031 -4.945312 16.84375 -3.71875 C 16.113281 -2.488281 15.101562 -1.523438 13.8125 -0.828125 C 12.519531 -0.128906 11.070312 0.21875 9.46875 0.21875 Z M 9.46875 -2.34375 C 10.519531 -2.34375 11.460938 -2.578125 12.296875 -3.046875 C 13.140625 -3.515625 13.800781 -4.171875 14.28125 -5.015625 C 14.757812 -5.867188 15 -6.820312 15 -7.875 C 15 -8.925781 14.757812 -9.875 14.28125 -10.71875 C 13.800781 -11.570312 13.140625 -12.234375 12.296875 -12.703125 C 11.460938 -13.171875 10.519531 -13.40625 9.46875 -13.40625 C 8.414062 -13.40625 7.46875 -13.171875 6.625 -12.703125 C 5.789062 -12.234375 5.132812 -11.570312 4.65625 -10.71875 C 4.175781 -9.875 3.9375 -8.925781 3.9375 -7.875 C 3.9375 -6.820312 4.175781 -5.867188 4.65625 -5.015625 C 5.132812 -4.171875 5.789062 -3.515625 6.625 -3.046875 C 7.46875 -2.578125 8.414062 -2.34375 9.46875 -2.34375 Z M 9.46875 -2.34375 "/></g></g></g><g fill="#001d30" fill-opacity="1"><g transform="translate(283.366009, 236.351351)"><g><path d="M 12.421875 0 L 9.203125 -4.609375 C 9.066406 -4.597656 8.863281 -4.59375 8.59375 -4.59375 L 5.046875 -4.59375 L 5.046875 0 L 2.109375 0 L 2.109375 -15.75 L 8.59375 -15.75 C 9.957031 -15.75 11.144531 -15.523438 12.15625 -15.078125 C 13.175781 -14.628906 13.953125 -13.984375 14.484375 -13.140625 C 15.023438 -12.296875 15.296875 -11.296875 15.296875 -10.140625 C 15.296875 -8.960938 15.003906 -7.945312 14.421875 -7.09375 C 13.847656 -6.238281 13.023438 -5.597656 11.953125 -5.171875 L 15.5625 0 Z M 12.359375 -10.140625 C 12.359375 -11.148438 12.023438 -11.925781 11.359375 -12.46875 C 10.703125 -13.007812 9.734375 -13.28125 8.453125 -13.28125 L 5.046875 -13.28125 L 5.046875 -7 L 8.453125 -7 C 9.734375 -7 10.703125 -7.269531 11.359375 -7.8125 C 12.023438 -8.363281 12.359375 -9.140625 12.359375 -10.140625 Z M 12.359375 -10.140625 "/></g></g></g><g fill="#001d30" fill-opacity="1"><g transform="translate(306.563548, 236.351351)"><g><path d="M 7.53125 -6.59375 L 5.046875 -4.03125 L 5.046875 0 L 2.109375 0 L 2.109375 -15.75 L 5.046875 -15.75 L 5.046875 -7.671875 L 12.828125 -15.75 L 16.109375 -15.75 L 9.5 -8.703125 L 16.515625 0 L 13.09375 0 Z M 7.53125 -6.59375 "/></g></g></g><g fill="#2d9ad8" fill-opacity="1"><g transform="translate(135.740555, 268.818059)"><g><path d="M 7.109375 -4.453125 L 8.640625 -4.453125 L 8.640625 -0.984375 C 8.191406 -0.628906 7.671875 -0.351562 7.078125 -0.15625 C 6.484375 0.03125 5.867188 0.125 5.234375 0.125 C 4.347656 0.125 3.546875 -0.0664062 2.828125 -0.453125 C 2.117188 -0.835938 1.5625 -1.367188 1.15625 -2.046875 C 0.75 -2.734375 0.546875 -3.503906 0.546875 -4.359375 C 0.546875 -5.210938 0.75 -5.976562 1.15625 -6.65625 C 1.5625 -7.332031 2.125 -7.863281 2.84375 -8.25 C 3.5625 -8.632812 4.367188 -8.828125 5.265625 -8.828125 C 5.992188 -8.828125 6.65625 -8.707031 7.25 -8.46875 C 7.84375 -8.226562 8.34375 -7.875 8.75 -7.40625 L 7.734375 -6.421875 C 7.066406 -7.078125 6.265625 -7.40625 5.328125 -7.40625 C 4.722656 -7.40625 4.179688 -7.273438 3.703125 -7.015625 C 3.222656 -6.765625 2.847656 -6.40625 2.578125 -5.9375 C 2.304688 -5.476562 2.171875 -4.953125 2.171875 -4.359375 C 2.171875 -3.773438 2.304688 -3.25 2.578125 -2.78125 C 2.847656 -2.320312 3.222656 -1.957031 3.703125 -1.6875 C 4.179688 -1.425781 4.722656 -1.296875 5.328125 -1.296875 C 6.003906 -1.296875 6.597656 -1.441406 7.109375 -1.734375 Z M 7.109375 -4.453125 "/></g></g></g><g fill="#2d9ad8" fill-opacity="1"><g transform="translate(155.296212, 268.818059)"><g><path d="M 1.171875 -8.703125 L 2.78125 -8.703125 L 2.78125 -1.375 L 7.34375 -1.375 L 7.34375 0 L 1.171875 0 Z M 1.171875 -8.703125 "/></g></g></g><g fill="#2d9ad8" fill-opacity="1"><g transform="translate(172.700849, 268.818059)"><g><path d="M 5.234375 0.125 C 4.347656 0.125 3.546875 -0.0664062 2.828125 -0.453125 C 2.117188 -0.835938 1.5625 -1.367188 1.15625 -2.046875 C 0.75 -2.734375 0.546875 -3.503906 0.546875 -4.359375 C 0.546875 -5.203125 0.75 -5.960938 1.15625 -6.640625 C 1.5625 -7.328125 2.117188 -7.863281 2.828125 -8.25 C 3.546875 -8.632812 4.347656 -8.828125 5.234375 -8.828125 C 6.117188 -8.828125 6.914062 -8.632812 7.625 -8.25 C 8.34375 -7.863281 8.90625 -7.332031 9.3125 -6.65625 C 9.71875 -5.976562 9.921875 -5.210938 9.921875 -4.359375 C 9.921875 -3.503906 9.71875 -2.734375 9.3125 -2.046875 C 8.90625 -1.367188 8.34375 -0.835938 7.625 -0.453125 C 6.914062 -0.0664062 6.117188 0.125 5.234375 0.125 Z M 5.234375 -1.296875 C 5.816406 -1.296875 6.335938 -1.425781 6.796875 -1.6875 C 7.265625 -1.945312 7.628906 -2.3125 7.890625 -2.78125 C 8.160156 -3.25 8.296875 -3.773438 8.296875 -4.359375 C 8.296875 -4.929688 8.160156 -5.453125 7.890625 -5.921875 C 7.628906 -6.390625 7.265625 -6.753906 6.796875 -7.015625 C 6.335938 -7.273438 5.816406 -7.40625 5.234375 -7.40625 C 4.648438 -7.40625 4.125 -7.273438 3.65625 -7.015625 C 3.195312 -6.753906 2.832031 -6.390625 2.5625 -5.921875 C 2.300781 -5.453125 2.171875 -4.929688 2.171875 -4.359375 C 2.171875 -3.773438 2.300781 -3.25 2.5625 -2.78125 C 2.832031 -2.3125 3.195312 -1.945312 3.65625 -1.6875 C 4.125 -1.425781 4.648438 -1.296875 5.234375 -1.296875 Z M 5.234375 -1.296875 "/></g></g></g><g fill="#2d9ad8" fill-opacity="1"><g transform="translate(193.126864, 268.818059)"><g><path d="M 7.34375 -4.53125 C 7.820312 -4.375 8.203125 -4.109375 8.484375 -3.734375 C 8.765625 -3.367188 8.90625 -2.910156 8.90625 -2.359375 C 8.90625 -1.609375 8.613281 -1.023438 8.03125 -0.609375 C 7.445312 -0.203125 6.601562 0 5.5 0 L 1.171875 0 L 1.171875 -8.703125 L 5.25 -8.703125 C 6.28125 -8.703125 7.070312 -8.5 7.625 -8.09375 C 8.175781 -7.695312 8.453125 -7.144531 8.453125 -6.4375 C 8.453125 -6.007812 8.351562 -5.628906 8.15625 -5.296875 C 7.957031 -4.960938 7.6875 -4.707031 7.34375 -4.53125 Z M 2.78125 -7.4375 L 2.78125 -5.03125 L 5.078125 -5.03125 C 5.640625 -5.03125 6.070312 -5.128906 6.375 -5.328125 C 6.675781 -5.535156 6.828125 -5.835938 6.828125 -6.234375 C 6.828125 -6.628906 6.675781 -6.925781 6.375 -7.125 C 6.070312 -7.332031 5.640625 -7.4375 5.078125 -7.4375 Z M 5.390625 -1.265625 C 6.648438 -1.265625 7.28125 -1.6875 7.28125 -2.53125 C 7.28125 -3.363281 6.648438 -3.78125 5.390625 -3.78125 L 2.78125 -3.78125 L 2.78125 -1.265625 Z M 5.390625 -1.265625 "/></g></g></g><g fill="#2d9ad8" fill-opacity="1"><g transform="translate(212.545752, 268.818059)"><g><path d="M 6.8125 -2.015625 L 2.46875 -2.015625 L 1.609375 0 L -0.0625 0 L 3.859375 -8.703125 L 5.453125 -8.703125 L 9.375 0 L 7.6875 0 Z M 6.28125 -3.28125 L 4.640625 -7.09375 L 3.015625 -3.28125 Z M 6.28125 -3.28125 "/></g></g></g><g fill="#2d9ad8" fill-opacity="1"><g transform="translate(231.815439, 268.818059)"><g><path d="M 1.171875 -8.703125 L 2.78125 -8.703125 L 2.78125 -1.375 L 7.34375 -1.375 L 7.34375 0 L 1.171875 0 Z M 1.171875 -8.703125 "/></g></g></g><g clip-path="url(#ed7401f518)"><path fill="#38b6ff" d="M 139.4375 138.800781 C 141.085938 133.03125 143.578125 127.660156 147.296875 123.132812 C 145.648438 122.714844 143.578125 121.894531 142.332031 120.671875 C 139.015625 116.964844 139.015625 111.195312 142.332031 107.890625 C 146.050781 104.183594 151.839844 104.183594 155.15625 107.890625 C 156.804688 109.132812 157.628906 110.773438 157.628906 112.417969 C 162.59375 109.113281 167.558594 106.648438 173.347656 104.585938 C 171.277344 106.648438 169.628906 109.113281 167.980469 111.597656 C 163.417969 114.082031 158.875 116.964844 155.15625 120.671875 C 151.839844 124.375 148.542969 128.503906 146.472656 133.03125 C 143.980469 134.671875 141.507812 136.734375 139.4375 138.800781 Z M 142.332031 197.753906 C 139.015625 194.449219 139.015625 188.679688 142.332031 184.972656 C 143.578125 183.730469 145.648438 182.910156 147.296875 182.507812 C 143.578125 177.980469 141.085938 172.613281 139.4375 166.84375 C 141.507812 168.90625 143.980469 170.972656 146.472656 172.191406 C 148.542969 177.140625 151.839844 181.265625 155.15625 184.972656 C 158.875 188.679688 163.4375 191.5625 167.980469 193.628906 C 169.628906 196.511719 171.296875 198.574219 173.347656 200.636719 C 167.558594 198.996094 162.59375 196.511719 157.628906 193.226562 C 157.628906 194.867188 156.804688 196.53125 155.15625 197.753906 C 151.839844 201.460938 146.050781 201.460938 142.332031 197.753906 Z M 232.902344 197.753906 C 229.183594 201.460938 223.394531 201.460938 220.078125 197.753906 C 218.429688 196.511719 217.605469 194.867188 217.605469 193.226562 C 212.640625 196.53125 207.675781 198.996094 201.886719 200.636719 C 203.957031 198.574219 205.605469 196.511719 207.253906 193.628906 C 211.796875 191.5625 216.359375 188.679688 219.65625 184.972656 C 223.375 181.265625 226.691406 177.140625 228.761719 172.191406 C 231.234375 170.949219 233.726562 168.886719 235.796875 166.84375 C 234.148438 172.613281 231.253906 177.980469 227.9375 182.507812 C 229.585938 182.929688 231.253906 183.75 232.902344 184.972656 C 236.21875 188.679688 236.21875 194.449219 232.902344 197.753906 Z M 232.902344 107.890625 C 236.21875 111.195312 236.21875 116.964844 232.902344 120.671875 C 231.253906 121.914062 229.585938 122.734375 227.9375 123.132812 C 231.253906 127.660156 234.148438 133.03125 235.796875 138.800781 C 233.726562 136.734375 231.253906 134.671875 228.761719 133.03125 C 226.691406 128.503906 223.394531 124.375 219.65625 120.671875 C 216.359375 116.964844 211.816406 114.082031 207.253906 111.597656 C 205.605469 109.132812 203.9375 106.648438 201.886719 104.585938 C 207.675781 106.648438 212.640625 109.113281 217.605469 112.417969 C 217.605469 110.773438 218.429688 109.113281 220.078125 107.890625 C 223.394531 104.183594 229.183594 104.183594 232.902344 107.890625 Z M 237.867188 152.820312 C 237.867188 159.832031 232.078125 166.421875 222.570312 170.949219 C 218.851562 172.59375 214.710938 173.835938 210.167969 175.078125 C 208.921875 179.605469 207.695312 183.730469 205.625 187.4375 C 201.082031 196.914062 194.875 202.679688 187.4375 202.679688 C 180.402344 202.679688 173.789062 196.914062 169.648438 187.4375 C 167.578125 183.730469 166.332031 179.605469 165.105469 175.078125 C 160.5625 173.835938 156.421875 172.613281 152.703125 170.949219 C 143.15625 166.421875 137.367188 159.832031 137.367188 152.820312 C 137.367188 145.410156 143.15625 139.21875 152.664062 134.691406 C 156.382812 133.050781 160.523438 131.386719 165.066406 130.566406 C 166.3125 126.039062 167.535156 121.492188 169.605469 118.207031 C 173.769531 108.710938 180.382812 102.941406 187.414062 102.941406 C 194.851562 102.941406 201.0625 108.710938 205.605469 118.1875 C 207.253906 121.492188 208.921875 126.019531 210.148438 130.546875 C 214.691406 131.367188 218.832031 133.011719 222.550781 134.671875 C 232.078125 139.21875 237.867188 145.390625 237.867188 152.820312 Z M 205.183594 176.320312 C 199.394531 177.140625 193.605469 177.5625 187.394531 177.5625 C 181.605469 177.5625 175.394531 177.140625 170.03125 176.320312 C 171.277344 179.625 172.101562 182.910156 173.746094 185.394531 C 177.464844 193.226562 182.429688 198.175781 187.394531 198.175781 C 192.761719 198.175781 197.726562 193.226562 201.464844 185.394531 C 203.132812 182.910156 203.957031 179.605469 205.183594 176.320312 Z M 168.804688 171.371094 C 174.59375 172.613281 180.804688 173.015625 187.414062 173.015625 C 194.027344 173.015625 200.640625 172.59375 206.027344 171.371094 C 207.273438 165.601562 208.097656 159.414062 208.097656 152.820312 C 208.097656 146.230469 207.273438 140.042969 206.027344 134.273438 C 200.660156 133.03125 194.027344 132.210938 187.414062 132.210938 C 180.804688 132.210938 174.59375 133.03125 168.804688 134.273438 C 167.980469 140.042969 167.15625 146.230469 167.15625 152.820312 C 167.15625 159.414062 167.980469 165.601562 168.804688 171.371094 Z M 210.992188 170.128906 C 214.710938 169.308594 217.605469 168.066406 220.5 166.824219 C 228.359375 163.117188 233.324219 158.171875 233.324219 152.800781 C 233.324219 147.433594 228.359375 142.503906 220.5 138.78125 C 217.605469 137.539062 214.710938 136.316406 210.992188 135.472656 C 212.238281 140.824219 212.640625 146.613281 212.640625 152.78125 C 212.640625 158.953125 212.21875 164.761719 210.992188 170.128906 Z M 170.050781 129.324219 C 175.417969 128.503906 181.628906 127.683594 187.414062 127.683594 C 193.625 127.683594 199.414062 128.503906 205.203125 129.324219 C 203.957031 126.019531 203.132812 122.734375 201.484375 119.847656 C 197.765625 112.015625 192.804688 107.488281 187.414062 107.488281 C 182.453125 107.488281 177.488281 112.015625 173.769531 119.847656 C 172.101562 122.734375 171.277344 126.019531 170.050781 129.324219 Z M 164.242188 135.515625 C 160.523438 136.335938 157.628906 137.578125 154.734375 138.820312 C 146.875 142.527344 141.910156 147.472656 141.910156 152.84375 C 141.910156 158.210938 146.875 163.136719 154.734375 166.863281 C 157.628906 168.105469 160.523438 169.328125 164.242188 170.167969 C 162.996094 164.820312 162.59375 159.03125 162.59375 152.863281 C 162.59375 146.691406 163.015625 140.863281 164.242188 135.515625 Z M 164.242188 135.515625 " fill-opacity="1" fill-rule="nonzero"/></g></svg>