<svg xmlns="http://www.w3.org/2000/svg" xmlns:xlink="http://www.w3.org/1999/xlink" width="150" zoomAndPan="magnify" viewBox="0 0 112.5 112.499997" height="150" preserveAspectRatio="xMidYMid meet" version="1.0"><defs><g/><clipPath id="f3c88a35a0"><path d="M 0 0 L 112.003906 0 L 112.003906 112.003906 L 0 112.003906 Z M 0 0 " clip-rule="nonzero"/></clipPath><clipPath id="b9ef411963"><path d="M 32.539062 12.855469 L 79.78125 12.855469 L 79.78125 60.105469 L 32.539062 60.105469 Z M 32.539062 12.855469 " clip-rule="nonzero"/></clipPath></defs><g clip-path="url(#f3c88a35a0)"><path fill="#ffffff" d="M 0 0 L 112.5 0 L 112.5 120 L 0 120 Z M 0 0 " fill-opacity="1" fill-rule="nonzero"/><path fill="#ffffff" d="M 0 0 L 112.5 0 L 112.5 112.5 L 0 112.5 Z M 0 0 " fill-opacity="1" fill-rule="nonzero"/><path fill="#ffffff" d="M 0 0 L 112.5 0 L 112.5 112.5 L 0 112.5 Z M 0 0 " fill-opacity="1" fill-rule="nonzero"/></g><g fill="#001d30" fill-opacity="1"><g transform="translate(3.56839, 76.81105)"><g><path d="M 3.34375 -6.125 C 3.875 -6.125 4.332031 -6.035156 4.71875 -5.859375 C 5.113281 -5.679688 5.414062 -5.429688 5.625 -5.109375 C 5.84375 -4.785156 5.953125 -4.398438 5.953125 -3.953125 C 5.953125 -3.503906 5.84375 -3.113281 5.625 -2.78125 C 5.414062 -2.457031 5.113281 -2.207031 4.71875 -2.03125 C 4.332031 -1.851562 3.875 -1.765625 3.34375 -1.765625 L 1.953125 -1.765625 L 1.953125 0 L 0.828125 0 L 0.828125 -6.125 Z M 3.296875 -2.734375 C 3.785156 -2.734375 4.15625 -2.835938 4.40625 -3.046875 C 4.664062 -3.253906 4.796875 -3.554688 4.796875 -3.953125 C 4.796875 -4.335938 4.664062 -4.632812 4.40625 -4.84375 C 4.15625 -5.050781 3.785156 -5.15625 3.296875 -5.15625 L 1.953125 -5.15625 L 1.953125 -2.734375 Z M 3.296875 -2.734375 "/></g></g></g><g fill="#001d30" fill-opacity="1"><g transform="translate(12.546014, 76.81105)"><g><path d="M 4.796875 -1.421875 L 1.734375 -1.421875 L 1.125 0 L -0.046875 0 L 2.71875 -6.125 L 3.828125 -6.125 L 6.59375 0 L 5.40625 0 Z M 4.421875 -2.3125 L 3.265625 -4.984375 L 2.125 -2.3125 Z M 4.421875 -2.3125 "/></g></g></g><g fill="#001d30" fill-opacity="1"><g transform="translate(21.724889, 76.81105)"><g><path d="M 4.828125 0 L 3.578125 -1.796875 C 3.523438 -1.785156 3.445312 -1.78125 3.34375 -1.78125 L 1.953125 -1.78125 L 1.953125 0 L 0.828125 0 L 0.828125 -6.125 L 3.34375 -6.125 C 3.875 -6.125 4.332031 -6.035156 4.71875 -5.859375 C 5.113281 -5.679688 5.414062 -5.429688 5.625 -5.109375 C 5.84375 -4.785156 5.953125 -4.398438 5.953125 -3.953125 C 5.953125 -3.484375 5.835938 -3.082031 5.609375 -2.75 C 5.390625 -2.414062 5.066406 -2.171875 4.640625 -2.015625 L 6.0625 0 Z M 4.796875 -3.953125 C 4.796875 -4.335938 4.664062 -4.632812 4.40625 -4.84375 C 4.15625 -5.050781 3.785156 -5.15625 3.296875 -5.15625 L 1.953125 -5.15625 L 1.953125 -2.71875 L 3.296875 -2.71875 C 3.785156 -2.71875 4.15625 -2.820312 4.40625 -3.03125 C 4.664062 -3.25 4.796875 -3.554688 4.796875 -3.953125 Z M 4.796875 -3.953125 "/></g></g></g><g fill="#001d30" fill-opacity="1"><g transform="translate(30.746262, 76.81105)"><g><path d="M 2.0625 -5.15625 L 0.03125 -5.15625 L 0.03125 -6.125 L 5.234375 -6.125 L 5.234375 -5.15625 L 3.203125 -5.15625 L 3.203125 0 L 2.0625 0 Z M 2.0625 -5.15625 "/></g></g></g><g fill="#001d30" fill-opacity="1"><g transform="translate(38.638859, 76.81105)"><g><path d="M 6.265625 -6.125 L 6.265625 0 L 5.328125 0 L 1.953125 -4.140625 L 1.953125 0 L 0.828125 0 L 0.828125 -6.125 L 1.765625 -6.125 L 5.140625 -1.984375 L 5.140625 -6.125 Z M 6.265625 -6.125 "/></g></g></g><g fill="#001d30" fill-opacity="1"><g transform="translate(48.351484, 76.81105)"><g><path d="M 5.421875 -0.953125 L 5.421875 0 L 0.828125 0 L 0.828125 -6.125 L 5.296875 -6.125 L 5.296875 -5.171875 L 1.953125 -5.171875 L 1.953125 -3.578125 L 4.921875 -3.578125 L 4.921875 -2.640625 L 1.953125 -2.640625 L 1.953125 -0.953125 Z M 5.421875 -0.953125 "/></g></g></g><g fill="#001d30" fill-opacity="1"><g transform="translate(56.839093, 76.81105)"><g><path d="M 4.828125 0 L 3.578125 -1.796875 C 3.523438 -1.785156 3.445312 -1.78125 3.34375 -1.78125 L 1.953125 -1.78125 L 1.953125 0 L 0.828125 0 L 0.828125 -6.125 L 3.34375 -6.125 C 3.875 -6.125 4.332031 -6.035156 4.71875 -5.859375 C 5.113281 -5.679688 5.414062 -5.429688 5.625 -5.109375 C 5.84375 -4.785156 5.953125 -4.398438 5.953125 -3.953125 C 5.953125 -3.484375 5.835938 -3.082031 5.609375 -2.75 C 5.390625 -2.414062 5.066406 -2.171875 4.640625 -2.015625 L 6.0625 0 Z M 4.796875 -3.953125 C 4.796875 -4.335938 4.664062 -4.632812 4.40625 -4.84375 C 4.15625 -5.050781 3.785156 -5.15625 3.296875 -5.15625 L 1.953125 -5.15625 L 1.953125 -2.71875 L 3.296875 -2.71875 C 3.785156 -2.71875 4.15625 -2.820312 4.40625 -3.03125 C 4.664062 -3.25 4.796875 -3.554688 4.796875 -3.953125 Z M 4.796875 -3.953125 "/></g></g></g><g fill="#001d30" fill-opacity="1"><g transform="translate(65.860463, 76.81105)"><g/></g></g><g fill="#001d30" fill-opacity="1"><g transform="translate(70.900523, 76.81105)"><g><path d="M 9.78125 -6.125 L 7.75 0 L 6.53125 0 L 5.015625 -4.53125 L 3.484375 0 L 2.265625 0 L 0.234375 -6.125 L 1.421875 -6.125 L 2.9375 -1.46875 L 4.53125 -6.125 L 5.578125 -6.125 L 7.125 -1.4375 L 8.6875 -6.125 Z M 9.78125 -6.125 "/></g></g></g><g fill="#001d30" fill-opacity="1"><g transform="translate(83.535702, 76.81105)"><g><path d="M 3.6875 0.09375 C 3.0625 0.09375 2.5 -0.0390625 2 -0.3125 C 1.5 -0.582031 1.101562 -0.957031 0.8125 -1.4375 C 0.53125 -1.925781 0.390625 -2.46875 0.390625 -3.0625 C 0.390625 -3.65625 0.53125 -4.191406 0.8125 -4.671875 C 1.101562 -5.160156 1.5 -5.539062 2 -5.8125 C 2.5 -6.082031 3.0625 -6.21875 3.6875 -6.21875 C 4.3125 -6.21875 4.875 -6.082031 5.375 -5.8125 C 5.875 -5.539062 6.265625 -5.164062 6.546875 -4.6875 C 6.835938 -4.207031 6.984375 -3.664062 6.984375 -3.0625 C 6.984375 -2.457031 6.835938 -1.914062 6.546875 -1.4375 C 6.265625 -0.957031 5.875 -0.582031 5.375 -0.3125 C 4.875 -0.0390625 4.3125 0.09375 3.6875 0.09375 Z M 3.6875 -0.90625 C 4.09375 -0.90625 4.457031 -1 4.78125 -1.1875 C 5.113281 -1.375 5.375 -1.628906 5.5625 -1.953125 C 5.75 -2.285156 5.84375 -2.65625 5.84375 -3.0625 C 5.84375 -3.46875 5.75 -3.832031 5.5625 -4.15625 C 5.375 -4.488281 5.113281 -4.75 4.78125 -4.9375 C 4.457031 -5.125 4.09375 -5.21875 3.6875 -5.21875 C 3.28125 -5.21875 2.910156 -5.125 2.578125 -4.9375 C 2.253906 -4.75 2 -4.488281 1.8125 -4.15625 C 1.625 -3.832031 1.53125 -3.46875 1.53125 -3.0625 C 1.53125 -2.65625 1.625 -2.285156 1.8125 -1.953125 C 2 -1.628906 2.253906 -1.375 2.578125 -1.1875 C 2.910156 -1 3.28125 -0.90625 3.6875 -0.90625 Z M 3.6875 -0.90625 "/></g></g></g><g fill="#001d30" fill-opacity="1"><g transform="translate(93.528331, 76.81105)"><g><path d="M 4.828125 0 L 3.578125 -1.796875 C 3.523438 -1.785156 3.445312 -1.78125 3.34375 -1.78125 L 1.953125 -1.78125 L 1.953125 0 L 0.828125 0 L 0.828125 -6.125 L 3.34375 -6.125 C 3.875 -6.125 4.332031 -6.035156 4.71875 -5.859375 C 5.113281 -5.679688 5.414062 -5.429688 5.625 -5.109375 C 5.84375 -4.785156 5.953125 -4.398438 5.953125 -3.953125 C 5.953125 -3.484375 5.835938 -3.082031 5.609375 -2.75 C 5.390625 -2.414062 5.066406 -2.171875 4.640625 -2.015625 L 6.0625 0 Z M 4.796875 -3.953125 C 4.796875 -4.335938 4.664062 -4.632812 4.40625 -4.84375 C 4.15625 -5.050781 3.785156 -5.15625 3.296875 -5.15625 L 1.953125 -5.15625 L 1.953125 -2.71875 L 3.296875 -2.71875 C 3.785156 -2.71875 4.15625 -2.820312 4.40625 -3.03125 C 4.664062 -3.25 4.796875 -3.554688 4.796875 -3.953125 Z M 4.796875 -3.953125 "/></g></g></g><g fill="#001d30" fill-opacity="1"><g transform="translate(102.549702, 76.81105)"><g><path d="M 2.9375 -2.5625 L 1.953125 -1.5625 L 1.953125 0 L 0.828125 0 L 0.828125 -6.125 L 1.953125 -6.125 L 1.953125 -2.984375 L 4.984375 -6.125 L 6.265625 -6.125 L 3.6875 -3.390625 L 6.421875 0 L 5.09375 0 Z M 2.9375 -2.5625 "/></g></g></g><g fill="#2d9ad8" fill-opacity="1"><g transform="translate(32.389245, 92.843767)"><g><path d="M 3.28125 -2.046875 L 3.984375 -2.046875 L 3.984375 -0.453125 C 3.773438 -0.285156 3.53125 -0.15625 3.25 -0.0625 C 2.976562 0.0195312 2.703125 0.0625 2.421875 0.0625 C 2.003906 0.0625 1.628906 -0.0234375 1.296875 -0.203125 C 0.972656 -0.378906 0.71875 -0.625 0.53125 -0.9375 C 0.34375 -1.257812 0.25 -1.613281 0.25 -2 C 0.25 -2.394531 0.34375 -2.75 0.53125 -3.0625 C 0.71875 -3.375 0.976562 -3.617188 1.3125 -3.796875 C 1.644531 -3.984375 2.015625 -4.078125 2.421875 -4.078125 C 2.765625 -4.078125 3.070312 -4.019531 3.34375 -3.90625 C 3.613281 -3.789062 3.84375 -3.628906 4.03125 -3.421875 L 3.5625 -2.953125 C 3.257812 -3.265625 2.890625 -3.421875 2.453125 -3.421875 C 2.171875 -3.421875 1.921875 -3.359375 1.703125 -3.234375 C 1.484375 -3.117188 1.3125 -2.953125 1.1875 -2.734375 C 1.0625 -2.523438 1 -2.28125 1 -2 C 1 -1.738281 1.0625 -1.5 1.1875 -1.28125 C 1.3125 -1.070312 1.484375 -0.90625 1.703125 -0.78125 C 1.921875 -0.65625 2.171875 -0.59375 2.453125 -0.59375 C 2.765625 -0.59375 3.039062 -0.660156 3.28125 -0.796875 Z M 3.28125 -2.046875 "/></g></g></g><g fill="#2d9ad8" fill-opacity="1"><g transform="translate(41.402872, 92.843767)"><g><path d="M 0.53125 -4.015625 L 1.28125 -4.015625 L 1.28125 -0.625 L 3.390625 -0.625 L 3.390625 0 L 0.53125 0 Z M 0.53125 -4.015625 "/></g></g></g><g fill="#2d9ad8" fill-opacity="1"><g transform="translate(49.424537, 92.843767)"><g><path d="M 2.421875 0.0625 C 2.003906 0.0625 1.628906 -0.0234375 1.296875 -0.203125 C 0.972656 -0.378906 0.71875 -0.625 0.53125 -0.9375 C 0.34375 -1.257812 0.25 -1.613281 0.25 -2 C 0.25 -2.394531 0.34375 -2.75 0.53125 -3.0625 C 0.71875 -3.375 0.972656 -3.617188 1.296875 -3.796875 C 1.628906 -3.984375 2.003906 -4.078125 2.421875 -4.078125 C 2.828125 -4.078125 3.191406 -3.984375 3.515625 -3.796875 C 3.847656 -3.617188 4.109375 -3.375 4.296875 -3.0625 C 4.484375 -2.75 4.578125 -2.394531 4.578125 -2 C 4.578125 -1.613281 4.484375 -1.257812 4.296875 -0.9375 C 4.109375 -0.625 3.847656 -0.378906 3.515625 -0.203125 C 3.191406 -0.0234375 2.828125 0.0625 2.421875 0.0625 Z M 2.421875 -0.59375 C 2.679688 -0.59375 2.914062 -0.648438 3.125 -0.765625 C 3.34375 -0.890625 3.515625 -1.0625 3.640625 -1.28125 C 3.765625 -1.5 3.828125 -1.738281 3.828125 -2 C 3.828125 -2.269531 3.765625 -2.515625 3.640625 -2.734375 C 3.515625 -2.953125 3.34375 -3.117188 3.125 -3.234375 C 2.914062 -3.359375 2.679688 -3.421875 2.421875 -3.421875 C 2.148438 -3.421875 1.90625 -3.359375 1.6875 -3.234375 C 1.476562 -3.117188 1.3125 -2.953125 1.1875 -2.734375 C 1.0625 -2.515625 1 -2.269531 1 -2 C 1 -1.738281 1.0625 -1.5 1.1875 -1.28125 C 1.3125 -1.0625 1.476562 -0.890625 1.6875 -0.765625 C 1.90625 -0.648438 2.148438 -0.59375 2.421875 -0.59375 Z M 2.421875 -0.59375 "/></g></g></g><g fill="#2d9ad8" fill-opacity="1"><g transform="translate(58.839532, 92.843767)"><g><path d="M 3.390625 -2.09375 C 3.609375 -2.019531 3.78125 -1.894531 3.90625 -1.71875 C 4.039062 -1.550781 4.109375 -1.34375 4.109375 -1.09375 C 4.109375 -0.738281 3.972656 -0.46875 3.703125 -0.28125 C 3.429688 -0.09375 3.039062 0 2.53125 0 L 0.53125 0 L 0.53125 -4.015625 L 2.421875 -4.015625 C 2.890625 -4.015625 3.253906 -3.921875 3.515625 -3.734375 C 3.773438 -3.546875 3.90625 -3.289062 3.90625 -2.96875 C 3.90625 -2.769531 3.859375 -2.59375 3.765625 -2.4375 C 3.671875 -2.289062 3.546875 -2.175781 3.390625 -2.09375 Z M 1.28125 -3.421875 L 1.28125 -2.328125 L 2.34375 -2.328125 C 2.601562 -2.328125 2.800781 -2.375 2.9375 -2.46875 C 3.070312 -2.5625 3.140625 -2.695312 3.140625 -2.875 C 3.140625 -3.050781 3.070312 -3.1875 2.9375 -3.28125 C 2.800781 -3.375 2.601562 -3.421875 2.34375 -3.421875 Z M 2.484375 -0.578125 C 3.066406 -0.578125 3.359375 -0.773438 3.359375 -1.171875 C 3.359375 -1.554688 3.066406 -1.75 2.484375 -1.75 L 1.28125 -1.75 L 1.28125 -0.578125 Z M 2.484375 -0.578125 "/></g></g></g><g fill="#2d9ad8" fill-opacity="1"><g transform="translate(67.790084, 92.843767)"><g><path d="M 3.140625 -0.921875 L 1.140625 -0.921875 L 0.734375 0 L -0.03125 0 L 1.78125 -4.015625 L 2.515625 -4.015625 L 4.328125 0 L 3.546875 0 Z M 2.890625 -1.515625 L 2.140625 -3.265625 L 1.390625 -1.515625 Z M 2.890625 -1.515625 "/></g></g></g><g fill="#2d9ad8" fill-opacity="1"><g transform="translate(76.671832, 92.843767)"><g><path d="M 0.53125 -4.015625 L 1.28125 -4.015625 L 1.28125 -0.625 L 3.390625 -0.625 L 3.390625 0 L 0.53125 0 Z M 0.53125 -4.015625 "/></g></g></g><g clip-path="url(#b9ef411963)"><path fill="#38b6ff" d="M 33.503906 29.84375 C 34.277344 27.109375 35.449219 24.566406 37.199219 22.421875 C 36.425781 22.222656 35.449219 21.835938 34.863281 21.253906 C 33.304688 19.5 33.304688 16.765625 34.863281 15.199219 C 36.613281 13.445312 39.335938 13.445312 40.894531 15.199219 C 41.667969 15.789062 42.054688 16.566406 42.054688 17.347656 C 44.390625 15.78125 46.726562 14.613281 49.445312 13.636719 C 48.472656 14.613281 47.699219 15.78125 46.921875 16.957031 C 44.777344 18.132812 42.640625 19.5 40.894531 21.253906 C 39.335938 23.011719 37.785156 24.964844 36.8125 27.109375 C 35.640625 27.890625 34.476562 28.867188 33.503906 29.84375 Z M 34.863281 57.773438 C 33.304688 56.207031 33.304688 53.472656 34.863281 51.71875 C 35.449219 51.128906 36.425781 50.742188 37.199219 50.550781 C 35.449219 48.40625 34.277344 45.863281 33.503906 43.128906 C 34.476562 44.105469 35.640625 45.085938 36.8125 45.664062 C 37.785156 48.007812 39.335938 49.960938 40.894531 51.71875 C 42.640625 53.472656 44.789062 54.839844 46.921875 55.816406 C 47.699219 57.183594 48.484375 58.160156 49.445312 59.140625 C 46.726562 58.359375 44.390625 57.183594 42.054688 55.628906 C 42.054688 56.40625 41.667969 57.195312 40.894531 57.773438 C 39.335938 59.527344 36.613281 59.527344 34.863281 57.773438 Z M 77.445312 57.773438 C 75.699219 59.527344 72.976562 59.527344 71.417969 57.773438 C 70.644531 57.183594 70.253906 56.40625 70.253906 55.628906 C 67.921875 57.195312 65.585938 58.359375 62.867188 59.140625 C 63.839844 58.160156 64.613281 57.183594 65.386719 55.816406 C 67.523438 54.839844 69.667969 53.472656 71.21875 51.71875 C 72.96875 49.960938 74.527344 48.007812 75.5 45.664062 C 76.664062 45.074219 77.835938 44.097656 78.808594 43.128906 C 78.03125 45.863281 76.671875 48.40625 75.113281 50.550781 C 75.886719 50.75 76.671875 51.140625 77.445312 51.71875 C 79.007812 53.472656 79.007812 56.207031 77.445312 57.773438 Z M 77.445312 15.199219 C 79.007812 16.765625 79.007812 19.5 77.445312 21.253906 C 76.671875 21.84375 75.886719 22.234375 75.113281 22.421875 C 76.671875 24.566406 78.03125 27.109375 78.808594 29.84375 C 77.835938 28.867188 76.671875 27.890625 75.5 27.109375 C 74.527344 24.964844 72.976562 23.011719 71.21875 21.253906 C 69.667969 19.5 67.535156 18.132812 65.386719 16.957031 C 64.613281 15.789062 63.828125 14.613281 62.867188 13.636719 C 65.585938 14.613281 67.921875 15.78125 70.253906 17.347656 C 70.253906 16.566406 70.644531 15.78125 71.417969 15.199219 C 72.976562 13.445312 75.699219 13.445312 77.445312 15.199219 Z M 79.78125 36.488281 C 79.78125 39.808594 77.058594 42.929688 72.589844 45.074219 C 70.839844 45.851562 68.894531 46.441406 66.757812 47.03125 C 66.171875 49.175781 65.597656 51.128906 64.625 52.886719 C 62.488281 57.375 59.566406 60.105469 56.070312 60.105469 C 52.761719 60.105469 49.65625 57.375 47.707031 52.886719 C 46.734375 51.128906 46.148438 49.175781 45.570312 47.03125 C 43.4375 46.441406 41.488281 45.863281 39.742188 45.074219 C 35.253906 42.929688 32.53125 39.808594 32.53125 36.488281 C 32.53125 32.976562 35.253906 30.042969 39.722656 27.898438 C 41.46875 27.121094 43.417969 26.332031 45.554688 25.945312 C 46.140625 23.800781 46.714844 21.644531 47.6875 20.089844 C 49.644531 15.589844 52.753906 12.855469 56.0625 12.855469 C 59.558594 12.855469 62.476562 15.589844 64.613281 20.078125 C 65.386719 21.644531 66.171875 23.789062 66.75 25.933594 C 68.886719 26.324219 70.832031 27.101562 72.582031 27.890625 C 77.058594 30.042969 79.78125 32.964844 79.78125 36.488281 Z M 64.414062 47.617188 C 61.695312 48.007812 58.972656 48.207031 56.050781 48.207031 C 53.332031 48.207031 50.410156 48.007812 47.886719 47.617188 C 48.472656 49.183594 48.859375 50.742188 49.636719 51.917969 C 51.382812 55.628906 53.71875 57.972656 56.050781 57.972656 C 58.574219 57.972656 60.910156 55.628906 62.667969 51.917969 C 63.453125 50.742188 63.839844 49.175781 64.414062 47.617188 Z M 47.3125 45.273438 C 50.03125 45.863281 52.953125 46.050781 56.0625 46.050781 C 59.171875 46.050781 62.28125 45.851562 64.8125 45.273438 C 65.398438 42.542969 65.785156 39.609375 65.785156 36.488281 C 65.785156 33.363281 65.398438 30.433594 64.8125 27.699219 C 62.289062 27.109375 59.171875 26.722656 56.0625 26.722656 C 52.953125 26.722656 50.03125 27.109375 47.3125 27.699219 C 46.921875 30.433594 46.535156 33.363281 46.535156 36.488281 C 46.535156 39.609375 46.921875 42.542969 47.3125 45.273438 Z M 67.144531 44.6875 C 68.894531 44.296875 70.253906 43.707031 71.617188 43.121094 C 75.3125 41.363281 77.644531 39.019531 77.644531 36.476562 C 77.644531 33.933594 75.3125 31.597656 71.617188 29.835938 C 70.253906 29.246094 68.894531 28.667969 67.144531 28.269531 C 67.730469 30.800781 67.921875 33.546875 67.921875 36.46875 C 67.921875 39.390625 67.722656 42.144531 67.144531 44.6875 Z M 47.898438 25.355469 C 50.417969 24.964844 53.339844 24.578125 56.0625 24.578125 C 58.980469 24.578125 61.703125 24.964844 64.425781 25.355469 C 63.839844 23.789062 63.453125 22.234375 62.675781 20.867188 C 60.929688 17.15625 58.59375 15.011719 56.0625 15.011719 C 53.726562 15.011719 51.394531 17.15625 49.644531 20.867188 C 48.859375 22.234375 48.472656 23.789062 47.898438 25.355469 Z M 45.164062 28.289062 C 43.417969 28.675781 42.054688 29.265625 40.695312 29.851562 C 37 31.609375 34.667969 33.953125 34.667969 36.496094 C 34.667969 39.039062 37 41.375 40.695312 43.140625 C 42.054688 43.726562 43.417969 44.304688 45.164062 44.707031 C 44.578125 42.171875 44.390625 39.429688 44.390625 36.503906 C 44.390625 33.582031 44.589844 30.820312 45.164062 28.289062 Z M 45.164062 28.289062 " fill-opacity="1" fill-rule="nonzero"/></g></svg>